<?xml version="1.0" standalone="no"?>
<!DOCTYPE svg PUBLIC "-//W3C//DTD SVG 20010904//EN"
 "http://www.w3.org/TR/2001/REC-SVG-20010904/DTD/svg10.dtd">
<svg version="1.0" xmlns="http://www.w3.org/2000/svg"
 width="500.000000pt" height="500.000000pt" viewBox="0 0 500.000000 500.000000"
 preserveAspectRatio="xMidYMid meet">

<g transform="translate(0.000000,500.000000) scale(0.100000,-0.100000)"
fill="#000000" stroke="none">
<path d="M0 2500 l0 -2500 2500 0 2500 0 0 2500 0 2500 -2500 0 -2500 0 0
-2500z m1910 1889 c150 -50 316 -149 488 -293 56 -47 105 -86 108 -86 4 0 34
25 67 56 157 145 356 271 514 324 82 28 113 34 193 34 82 1 102 -3 150 -25
117 -55 194 -174 232 -355 26 -128 21 -359 -12 -539 -12 -66 -23 -126 -23
-133 -1 -9 42 -29 123 -57 235 -82 407 -181 531 -304 169 -169 192 -334 69
-509 -107 -152 -336 -300 -610 -393 -52 -18 -98 -35 -102 -38 -4 -4 1 -49 12
-101 11 -52 25 -152 32 -222 11 -117 13 -127 33 -130 l21 -3 -33 -210 c-17
-115 -32 -213 -32 -217 -1 -5 -18 -8 -40 -8 -33 0 -42 -5 -66 -40 -32 -47 -78
-83 -137 -110 l-43 -19 93 0 92 -1 0 -35 c0 -32 -2 -35 -30 -35 l-30 0 0 -185
0 -185 -35 0 -35 0 0 185 0 185 -30 0 c-28 0 -30 3 -30 35 0 37 -9 42 -57 29
-23 -6 -23 -7 -23 -221 l0 -214 -32 3 c-31 3 -32 4 -64 118 l-32 115 -1 -117
-1 -118 -30 0 -30 0 0 220 0 220 29 0 c27 0 31 -4 46 -57 9 -32 24 -85 34
-118 l19 -60 1 113 c1 82 -2 113 -11 116 -7 2 -43 10 -81 19 -98 24 -204 71
-309 137 -81 51 -93 56 -96 39 -2 -14 -12 -19 -32 -19 -26 0 -30 5 -45 58 -31
105 -55 111 -55 12 l0 -70 -30 0 -30 0 0 103 c0 91 -2 106 -20 122 -20 18 -21
18 -50 -10 -19 -19 -30 -39 -30 -57 0 -25 -4 -28 -32 -28 -25 0 -53 -15 -113
-60 -139 -105 -259 -170 -400 -216 l-70 -22 53 -1 52 -1 0 -35 c0 -34 -1 -35
-40 -35 l-40 0 0 -55 c0 -54 0 -55 30 -55 28 0 30 -3 30 -35 0 -32 -2 -35 -30
-35 l-30 0 0 -60 0 -60 40 0 c39 0 40 -1 40 -35 l0 -35 -75 0 -75 0 0 218 0
217 -78 2 c-121 2 -212 46 -276 133 -28 37 -33 40 -79 40 l-50 0 6 268 c5 263
18 388 53 541 9 40 14 73 12 74 -1 1 -49 17 -105 36 -383 126 -668 363 -698
579 -9 65 15 159 58 230 37 63 140 163 227 222 85 58 284 152 410 194 122 40
115 21 79 201 -31 161 -34 451 -5 560 40 152 112 257 207 303 90 44 227 44
359 1z m-737 -2790 c47 -36 57 -129 21 -186 -12 -19 -11 -35 6 -119 11 -53 20
-100 20 -105 0 -5 -15 -9 -34 -9 l-34 0 -12 73 c-20 116 -29 122 -29 20 l-1
-93 -35 0 -35 0 0 220 0 220 54 0 c39 0 60 -6 79 -21z m2797 -14 c0 -34 -1
-35 -40 -35 l-40 0 0 -55 c0 -54 0 -55 30 -55 28 0 30 -3 30 -35 0 -32 -2 -35
-30 -35 l-30 0 0 -60 0 -60 40 0 c39 0 40 -1 40 -35 l0 -35 -75 0 -75 0 0 220
0 220 75 0 75 0 0 -35z m-173 -586 c7 -6 18 -29 25 -51 13 -44 4 -58 -39 -58
-16 0 -22 7 -25 27 -2 18 -10 29 -22 31 -31 6 -15 -66 31 -134 69 -104 79
-153 44 -211 -24 -39 -66 -50 -114 -29 -28 11 -38 23 -48 54 -15 53 -7 72 31
72 24 0 30 -4 30 -22 0 -32 15 -52 34 -45 28 11 18 60 -25 128 -72 110 -83
153 -53 210 8 17 25 34 37 39 25 11 74 5 94 -11z m-2547 -166 c0 -173 6 -213
29 -199 7 5 11 67 11 192 l0 184 35 0 35 0 0 -187 c0 -205 -5 -228 -54 -251
-23 -12 -34 -12 -64 0 -54 20 -61 51 -61 261 l-1 177 35 0 35 0 0 -177z m280
-43 l0 -220 -35 0 -35 0 0 220 0 220 35 0 35 0 0 -220z m570 30 l0 -190 45 0
c43 0 45 -1 45 -30 l0 -30 -80 0 -80 0 0 220 0 220 35 0 35 0 0 -190z m320
155 c0 -34 -1 -35 -40 -35 l-40 0 0 -55 c0 -54 0 -55 30 -55 28 0 30 -3 30
-35 0 -32 -2 -35 -30 -35 l-30 0 0 -60 0 -60 40 0 c39 0 40 -1 40 -35 l0 -35
-75 0 -75 0 0 220 0 220 75 0 75 0 0 -35z m196 -60 c10 -52 20 -93 22 -90 3 3
13 44 21 93 l16 87 43 3 42 3 0 -220 0 -221 -30 0 -29 0 -3 138 -3 137 -20
-135 c-16 -108 -23 -135 -37 -138 -13 -2 -18 7 -24 45 -3 26 -12 82 -19 123
l-13 75 -1 -122 -1 -123 -35 0 -35 0 0 220 0 220 44 0 44 0 18 -95z m402 63
c-3 -31 -6 -33 -45 -36 l-43 -3 0 -55 c0 -53 0 -54 30 -54 28 0 30 -3 30 -34
0 -30 -3 -35 -27 -38 -27 -3 -28 -6 -31 -60 l-3 -58 46 0 c45 0 45 0 45 -35
l0 -35 -80 0 -80 0 0 220 0 220 81 0 80 0 -3 -32z"/>
<path d="M1643 4249 c-45 -13 -98 -81 -125 -158 -21 -60 -23 -84 -23 -261 0
-165 4 -213 24 -312 13 -65 26 -118 30 -118 3 0 33 7 66 14 59 14 276 48 387
61 l56 6 74 97 c40 53 114 145 165 204 l91 106 -80 69 c-115 98 -219 168 -333
224 -148 72 -247 92 -332 68z"/>
<path d="M3133 4231 c-139 -48 -312 -160 -456 -292 l-58 -54 86 -99 c47 -55
117 -142 157 -195 39 -53 74 -99 77 -103 3 -4 65 -14 136 -23 72 -9 186 -27
255 -41 121 -23 139 -22 140 8 0 3 9 59 20 125 26 149 28 379 6 477 -26 109
-69 181 -128 212 -45 23 -143 17 -235 -15z"/>
<path d="M2427 3683 c-36 -43 -84 -102 -107 -130 l-42 -53 222 0 c174 0 220 3
214 13 -24 42 -201 247 -213 247 -4 0 -37 -35 -74 -77z"/>
<path d="M2182 3323 c-30 -4 -40 -15 -96 -101 -82 -125 -163 -267 -232 -404
l-54 -109 81 -152 c87 -160 166 -294 230 -388 29 -43 45 -58 70 -63 41 -8 572
-8 632 0 l46 7 70 111 c92 149 180 303 232 407 l42 87 -47 91 c-71 137 -149
274 -228 397 l-71 112 -51 6 c-55 6 -569 5 -624 -1z m471 -297 c161 -78 236
-282 163 -442 -66 -144 -221 -231 -366 -204 -172 32 -290 169 -290 334 0 153
87 278 230 330 70 25 192 17 263 -18z"/>
<path d="M1765 3274 c-178 -31 -177 -30 -169 -57 23 -75 109 -297 115 -297 4
0 31 44 60 98 29 53 76 136 106 184 29 47 53 89 53 92 0 8 -8 7 -165 -20z"/>
<path d="M3070 3298 c0 -2 36 -63 79 -137 44 -73 92 -157 108 -187 15 -30 31
-54 35 -54 7 0 73 166 103 259 13 41 15 55 5 61 -7 4 -71 17 -144 29 -72 12
-143 25 -158 27 -16 3 -28 4 -28 2z"/>
<path d="M1315 3165 c-338 -116 -574 -299 -575 -446 0 -83 93 -203 230 -294
87 -58 250 -135 365 -174 l89 -30 42 117 c22 64 65 176 95 247 l55 131 -52
120 c-28 66 -70 175 -94 242 -23 67 -45 122 -49 122 -3 -1 -51 -16 -106 -35z"/>
<path d="M3575 3190 c-3 -4 -21 -55 -41 -112 -20 -56 -60 -161 -90 -232 l-55
-129 45 -101 c54 -121 95 -227 126 -319 25 -78 9 -76 160 -20 254 94 461 236
519 357 58 119 -7 236 -202 363 -124 81 -448 216 -462 193z"/>
<path d="M3212 2379 c-45 -79 -96 -168 -113 -197 l-32 -54 55 7 c30 4 108 17
174 29 112 20 119 23 117 44 -3 24 -61 184 -97 266 l-21 49 -83 -144z"/>
<path d="M1690 2465 c-40 -94 -103 -275 -97 -281 8 -8 273 -53 314 -54 l32 0
-58 93 c-32 50 -82 136 -110 190 -29 53 -55 97 -57 97 -3 0 -13 -20 -24 -45z"/>
<path d="M3340 2004 c-63 -12 -178 -30 -256 -40 l-140 -17 -48 -68 c-27 -38
-82 -110 -123 -161 -64 -81 -71 -93 -54 -96 19 -3 21 -10 21 -96 l0 -94 56
-42 c30 -23 57 -40 58 -38 2 1 11 63 21 136 l19 132 42 0 c48 0 41 20 74 -205
29 -196 22 -181 85 -204 31 -12 60 -21 65 -21 6 0 10 71 10 180 l0 180 -30 0
c-28 0 -30 3 -30 35 l0 35 95 0 95 0 0 -35 c0 -32 -2 -35 -30 -35 l-30 0 0
-184 c0 -167 -2 -185 -17 -189 -10 -3 10 -5 44 -6 34 0 73 3 87 9 l26 10 0
215 0 215 35 0 35 0 1 -177 1 -178 19 43 c61 133 65 410 9 670 -7 28 -15 51
-18 51 -4 -1 -59 -12 -122 -25z"/>
<path d="M1527 1949 c-26 -123 -27 -130 -36 -248 -4 -62 -4 -156 0 -208 9
-102 46 -236 59 -212 4 8 18 87 31 177 l23 162 43 0 c24 0 43 -3 43 -7 0 -5
15 -104 33 -220 l33 -213 -32 0 c-35 0 -44 13 -44 61 0 25 -4 29 -29 29 -29 0
-41 -18 -41 -62 0 -34 101 -48 200 -27 43 9 50 14 43 27 -4 10 -9 95 -11 190
l-3 173 30 29 c37 38 72 38 111 3 23 -22 31 -40 36 -80 l7 -53 -36 0 c-35 0
-36 1 -39 43 -2 29 -8 42 -18 42 -13 0 -15 -24 -15 -155 0 -131 2 -155 15
-155 10 0 16 13 18 43 3 41 4 42 39 42 35 0 36 0 30 -35 -3 -19 -3 -35 1 -34
4 0 34 17 67 37 l60 37 3 108 3 107 -31 0 c-28 0 -30 3 -30 35 l0 35 95 0 95
0 0 -35 c0 -32 -2 -35 -30 -35 l-30 0 0 -75 c0 -41 3 -75 6 -75 7 0 57 40 129
103 l39 34 -65 74 c-70 79 -159 190 -226 280 l-41 56 -119 12 c-104 11 -276
37 -369 57 l-32 6 -15 -73z"/>
<path d="M2316 1883 c21 -27 72 -87 113 -136 87 -103 69 -107 194 48 44 55 87
108 95 118 14 16 3 17 -213 17 l-227 0 38 -47z"/>
<path d="M2651 1571 l-21 -30 25 -28 24 -28 1 58 c0 31 -2 57 -4 57 -3 0 -14
-13 -25 -29z"/>
<path d="M1640 1453 c0 -11 -3 -41 -6 -67 -6 -41 -5 -46 13 -46 18 0 19 4 11
62 -8 62 -18 89 -18 51z"/>
<path d="M2930 1453 c0 -11 -3 -41 -6 -67 -6 -41 -5 -46 13 -46 18 0 19 4 11
62 -8 62 -18 89 -18 51z"/>
<path d="M1110 1490 c0 -61 11 -76 30 -41 20 39 7 101 -22 101 -4 0 -8 -27 -8
-60z"/>
</g>
</svg>
